<svg width="39" height="36" viewBox="0 0 39 36" fill="none" xmlns="http://www.w3.org/2000/svg">
<path d="M38.25 8V9.25C38.25 9.66667 38.0417 9.875 37.625 9.875H35.75V10.8125C35.75 11.4375 35.4375 11.75 34.8125 11.75H4.1875C3.5625 11.75 3.25 11.4375 3.25 10.8125V9.875H1.375C0.958333 9.875 0.75 9.66667 0.75 9.25V8C0.75 7.73958 0.880208 7.55729 1.14062 7.45312L19.2656 0.578125C19.3177 0.526042 19.3958 0.5 19.5 0.5C19.6042 0.5 19.6823 0.526042 19.7344 0.578125L37.8594 7.45312C38.1198 7.55729 38.25 7.73958 38.25 8ZM36.375 31.75C36.8958 31.75 37.3385 31.9323 37.7031 32.2969C38.0677 32.6615 38.25 33.1042 38.25 33.625V34.875C38.25 35.2917 38.0417 35.5 37.625 35.5H1.375C0.958333 35.5 0.75 35.2917 0.75 34.875V33.625C0.75 33.1042 0.932292 32.6615 1.29688 32.2969C1.66146 31.9323 2.10417 31.75 2.625 31.75H36.375ZM7 13H12V28H17V13H22V28H27V13H32V28H34.8125C35.4375 28 35.75 28.3125 35.75 28.9375V30.5H3.25V28.9375C3.25 28.3125 3.5625 28 4.1875 28H7V13Z" fill="#2F495C"/>
</svg>
